<?xml version="1.0" standalone="no"?>
<!DOCTYPE svg PUBLIC "-//W3C//DTD SVG 20010904//EN"
 "http://www.w3.org/TR/2001/REC-SVG-20010904/DTD/svg10.dtd">
<svg version="1.0" xmlns="http://www.w3.org/2000/svg"
 width="400.000000pt" height="400.000000pt" viewBox="0 0 400.000000 400.000000"
 preserveAspectRatio="xMidYMid meet">
<metadata>
Created by potrace 1.14, written by Peter Selinger 2001-2017
</metadata>
<g transform="translate(0.000000,400.000000) scale(0.100000,-0.100000)"
fill="#000000" stroke="none">
<path d="M1920 3790 c-196 -14 -440 -78 -440 -116 0 -8 -5 -14 -11 -14 -5 0
-7 5 -4 10 11 18 -3 10 -32 -17 -77 -74 -114 -103 -132 -103 -11 0 -23 -5 -27
-12 -4 -7 -3 -8 4 -4 7 4 12 2 12 -4 0 -7 -8 -9 -20 -5 -13 4 -34 -4 -62 -23
-53 -37 -124 -109 -115 -118 3 -4 -1 -13 -9 -21 -8 -9 -13 -17 -10 -20 2 -3
14 5 25 16 13 13 16 21 8 21 -6 1 -2 6 11 13 12 7 20 16 16 20 -4 3 0 9 9 13
9 3 23 -1 32 -10 14 -14 13 -16 -7 -27 -13 -7 -36 -25 -52 -41 -27 -27 -27
-30 -12 -47 12 -13 14 -21 7 -26 -6 -3 -11 0 -11 7 0 7 -7 22 -16 33 -12 17
-16 18 -24 5 -5 -8 -6 -18 -4 -22 3 -4 0 -8 -5 -8 -6 0 -11 -5 -11 -11 0 -6 9
-9 20 -6 11 3 23 1 26 -4 9 -15 44 -10 51 7 3 9 13 14 24 11 11 -3 16 -1 13 5
-3 5 -17 7 -31 3 -16 -4 -22 -2 -18 5 3 5 0 10 -7 10 -9 1 -7 5 4 14 10 7 15
16 11 19 -3 4 5 7 19 7 18 0 25 5 24 17 0 10 17 26 49 42 35 18 44 27 31 29
-10 2 -22 -2 -27 -10 -7 -10 -9 -9 -9 5 0 13 8 17 33 17 17 0 43 3 57 5 25 5
25 5 3 -6 -25 -13 -31 -54 -10 -63 6 -3 -9 -5 -35 -3 -57 3 -74 -18 -25 -31
l32 -8 -35 -14 c-19 -7 -41 -12 -47 -11 -22 3 -14 -17 8 -24 15 -5 18 -10 9
-15 -8 -5 -7 -9 5 -14 27 -10 47 -7 39 6 -5 7 -2 9 8 6 8 -4 21 -3 28 2 8 5 2
10 -21 16 -19 4 -38 7 -42 6 -5 -2 -6 2 -3 7 3 5 16 7 29 4 18 -4 19 -3 7 7
-12 9 -7 10 20 4 19 -4 43 -7 53 -6 15 1 16 -1 2 -14 -8 -9 -12 -20 -9 -26 4
-6 3 -8 -2 -5 -5 3 -20 -8 -33 -24 -13 -16 -28 -26 -35 -22 -6 4 -23 6 -38 4
-23 -2 -28 1 -28 19 0 19 -4 21 -27 16 -34 -8 -54 -32 -46 -54 4 -10 2 -13 -6
-8 -7 4 -10 13 -8 19 6 17 -24 36 -55 37 -31 0 -36 -11 -14 -29 11 -9 20 -10
36 -1 20 10 21 10 11 -8 -9 -16 -7 -21 10 -25 23 -6 17 -27 -7 -27 -8 0 -13 4
-10 9 4 5 -3 7 -14 4 -23 -6 -26 -19 -7 -27 6 -3 -6 -4 -28 -4 -44 2 -65 -6
-65 -25 0 -9 2 -9 8 0 8 12 41 11 62 -2 6 -3 10 -1 10 6 0 8 4 8 15 -1 13 -10
19 -10 33 4 22 19 58 21 68 4 5 -7 2 -9 -9 -5 -8 3 -21 -1 -28 -9 -10 -13 -8
-14 13 -10 22 4 24 1 20 -20 -2 -13 -7 -23 -11 -22 -3 0 -8 -1 -11 -2 -3 -1
-17 -3 -32 -4 -23 -2 -25 0 -15 13 9 12 9 13 -1 7 -7 -4 -25 -9 -40 -12 l-27
-4 25 15 c17 10 20 14 9 15 -24 0 -47 -29 -30 -39 12 -8 -16 -17 -66 -23 -22
-2 -14 -18 10 -18 17 0 12 -5 -18 -19 l-40 -18 28 -7 c24 -6 27 -9 17 -21 -10
-12 -9 -15 9 -15 12 0 20 -4 17 -9 -3 -5 1 -12 10 -15 9 -3 12 -11 8 -18 -5
-8 -2 -9 10 -5 10 4 20 7 22 7 2 0 4 6 4 14 0 15 21 26 48 26 11 -1 8 -6 -11
-16 -15 -8 -25 -19 -22 -24 3 -5 1 -11 -5 -15 -5 -3 -10 -11 -10 -18 0 -8 3
-8 11 0 9 9 18 8 35 -4 33 -21 23 -30 -31 -28 -36 2 -43 0 -35 -11 9 -10 6
-11 -10 -7 -22 6 -38 23 -21 23 6 0 11 4 11 9 0 5 -16 5 -37 -1 -21 -5 -44
-10 -50 -10 -15 -2 -18 -18 -3 -18 5 0 7 -6 4 -14 -4 -11 0 -13 17 -9 14 4 20
2 16 -5 -4 -6 5 -15 20 -20 16 -6 21 -11 13 -11 -23 -1 -22 -57 1 -57 10 0 16
3 14 7 -3 3 7 4 20 1 29 -5 44 -22 21 -22 -16 0 -31 -40 -23 -62 2 -7 0 -21
-5 -30 -6 -12 -5 -18 2 -18 6 0 13 7 16 15 4 8 11 15 17 15 7 0 7 -4 -1 -12
-15 -15 -16 -32 -1 -22 8 4 8 1 1 -12 -5 -11 -13 -38 -17 -62 -5 -34 -10 -41
-20 -32 -11 9 -13 6 -10 -17 2 -15 4 -34 4 -41 1 -7 5 -11 11 -7 5 3 6 13 3
22 -4 10 -2 14 4 10 12 -8 23 14 23 44 0 10 4 19 9 19 5 0 7 -10 4 -22 -5 -21
-2 -20 21 7 35 42 33 26 -4 -21 -17 -22 -37 -48 -45 -58 -12 -16 -12 -22 1
-48 8 -16 19 -59 25 -96 5 -37 11 -76 14 -87 2 -11 12 -56 21 -100 9 -44 23
-91 31 -105 10 -18 12 -20 9 -5 -3 11 -2 117 3 235 7 177 11 223 26 255 11 22
25 44 32 48 19 12 52 86 55 125 1 17 6 32 11 32 4 0 7 6 6 13 -3 14 8 60 23
100 10 26 15 28 54 25 29 -2 45 1 49 9 2 7 16 13 29 13 15 0 30 8 36 20 6 11
19 19 28 18 11 -2 18 5 20 20 l3 23 30 -26 c17 -14 35 -25 40 -25 5 0 8 -5 6
-12 -1 -7 17 -17 41 -23 24 -6 40 -13 37 -17 -3 -3 26 -6 65 -6 40 -1 68 3 65
8 -3 5 6 12 20 16 14 3 25 10 25 15 0 16 30 10 37 -7 4 -12 11 -5 25 25 15 33
24 41 46 41 19 0 23 -3 14 -9 -10 -6 -7 -10 12 -13 14 -3 28 -3 30 0 3 2 26 6
53 8 26 2 49 8 51 14 2 5 15 10 28 10 13 0 24 4 24 9 0 12 52 21 79 14 31 -8
26 -24 -6 -17 l-28 6 23 -16 c12 -10 22 -25 23 -34 1 -11 4 -8 9 8 4 14 9 18
9 10 1 -8 10 -26 21 -40 31 -39 26 -49 -22 -43 -34 3 -39 2 -26 -7 27 -17 98
-24 98 -9 0 7 2 10 5 7 3 -3 1 -16 -4 -30 -6 -17 -6 -25 2 -26 7 0 29 -2 50
-3 42 -3 44 -5 20 -31 -15 -17 -15 -18 2 -18 13 0 15 -3 7 -13 -7 -8 -6 -17 3
-30 10 -13 14 -15 18 -5 3 9 7 8 12 -5 9 -21 -11 -47 -36 -47 -10 0 -20 -4
-23 -9 -4 -5 -25 -12 -49 -16 -23 -4 -46 -11 -52 -15 -5 -5 -24 -10 -42 -13
-17 -3 -38 -9 -45 -13 -7 -4 -21 -9 -31 -9 -16 -2 -57 -37 -57 -50 0 -15 -48
-53 -75 -60 -26 -6 -27 -8 -12 -16 22 -13 22 -29 0 -29 -16 -1 -16 -2 1 -15
11 -8 14 -15 7 -15 -7 0 -9 -5 -5 -12 4 -6 9 -34 11 -61 3 -29 12 -61 23 -74
10 -14 16 -31 13 -39 -3 -8 0 -14 6 -14 6 0 8 -6 5 -14 -3 -8 -1 -17 5 -21 6
-3 11 -22 11 -42 0 -42 20 -113 32 -113 4 0 8 -7 8 -15 0 -14 11 -19 38 -16 6
1 12 -5 12 -13 0 -9 9 -21 20 -28 11 -7 20 -20 20 -29 0 -20 -53 -59 -80 -59
-11 0 -23 -7 -26 -15 -3 -8 -16 -17 -27 -21 -12 -3 -30 -13 -39 -21 -10 -9
-26 -13 -38 -10 -11 3 -18 2 -15 -3 3 -4 -9 -13 -26 -20 -18 -8 -28 -18 -25
-26 8 -21 -6 -17 -51 16 -34 25 -45 29 -66 21 -38 -15 -50 -44 -27 -63 10 -9
27 -19 39 -23 12 -3 21 -12 21 -18 0 -7 4 -6 10 3 5 8 12 12 15 8 9 -9 -38
-56 -51 -51 -6 2 -14 -6 -17 -19 -4 -12 -9 -19 -13 -15 -4 4 -18 -5 -31 -19
-12 -14 -23 -20 -23 -14 0 6 -18 9 -43 9 -24 -1 -49 1 -55 5 -6 3 -17 -3 -25
-14 -13 -18 -15 -19 -21 -5 -5 15 -9 14 -34 -4 -16 -11 -30 -26 -31 -33 -1 -7
-3 -25 -4 -40 -2 -16 -6 -30 -9 -34 -9 -8 1 -86 14 -111 8 -17 7 -25 -6 -39
-14 -13 -15 -19 -5 -25 8 -4 14 -18 14 -31 0 -16 7 -24 23 -26 30 -5 72 23 72
47 0 10 9 21 20 24 11 3 20 1 20 -4 0 -22 17 -6 29 27 11 32 16 35 39 29 15
-4 29 -11 30 -16 2 -5 10 -9 18 -9 8 0 14 -9 14 -20 0 -11 8 -24 18 -28 13 -5
11 -8 -13 -12 -24 -4 -30 -10 -30 -32 -1 -37 45 -59 130 -63 59 -2 95 -19 95
-43 0 -15 2 -15 10 -2 5 8 10 11 10 6 0 -5 6 -3 14 3 7 6 21 9 30 5 9 -3 23
-1 31 6 14 11 19 7 16 -12 0 -4 6 -5 14 -2 8 4 15 1 15 -7 0 -7 3 -9 7 -6 3 4
-2 16 -12 27 -20 22 -14 26 16 10 10 -6 19 -18 19 -28 1 -14 4 -13 20 7 15 17
23 21 33 13 7 -6 22 -9 34 -6 18 5 20 1 17 -33 -1 -21 -3 -39 -3 -40 -1 -1
-13 4 -28 12 -18 10 -31 11 -39 4 -9 -7 -14 -5 -17 8 -4 14 -5 13 -6 -4 -1
-29 -10 -29 -40 2 -13 14 -26 23 -29 20 -3 -3 3 -11 13 -19 10 -7 15 -18 11
-24 -3 -5 0 -13 6 -16 10 -5 10 -7 1 -12 -7 -3 -9 -18 -6 -39 4 -27 2 -33 -11
-31 -8 1 -19 5 -22 9 -14 14 -22 7 -18 -15 4 -21 3 -21 -7 2 -9 19 -13 22 -18
10 -8 -19 -31 -24 -31 -7 0 8 -10 18 -22 24 -29 13 -88 -14 -89 -42 0 -14 -4
-11 -12 12 -14 38 -15 38 -49 47 -20 5 -27 2 -31 -11 -2 -13 -7 -7 -15 17
l-12 35 4 -42 4 -42 -39 4 c-35 4 -39 2 -40 -18 -1 -18 -2 -18 -6 -4 -4 14 -8
16 -19 6 -8 -6 -14 -8 -14 -4 0 4 -7 2 -15 -5 -12 -10 -16 -9 -21 4 -6 15 -8
15 -19 -1 -8 -10 -17 -15 -21 -10 -4 4 -2 7 5 7 8 0 6 8 -5 25 -10 15 -25 25
-38 24 -17 -1 -18 -2 -3 -6 17 -4 21 -25 4 -24 -4 1 -21 1 -38 1 -23 0 -30 4
-26 14 4 11 1 13 -10 9 -11 -4 -14 -2 -9 5 5 8 -1 12 -15 12 -16 0 -20 5 -16
20 3 11 1 21 -4 21 -5 1 -12 2 -16 3 -22 4 -53 35 -48 48 4 9 -4 22 -20 32
-14 9 -23 21 -20 26 3 5 -4 14 -15 20 -11 6 -20 17 -20 26 0 8 -12 20 -26 26
-17 8 -24 18 -21 30 3 11 0 18 -9 18 -21 0 -2 -43 25 -56 16 -8 18 -13 9 -16
-20 -7 9 -38 36 -39 16 0 17 -2 6 -7 -9 -4 -15 -13 -14 -19 1 -7 2 -19 3 -25
1 -9 4 -8 11 2 7 11 10 8 10 -16 0 -20 9 -39 29 -58 16 -15 28 -37 27 -49 -1
-12 2 -25 7 -28 5 -4 10 -19 10 -34 0 -19 2 -23 8 -14 10 16 9 17 15 -34 5
-48 62 -119 110 -136 34 -12 42 -25 24 -36 -16 -10 -11 -26 8 -23 11 2 17 -3
16 -14 -1 -10 2 -18 7 -18 5 0 9 11 9 25 0 27 17 34 26 10 4 -8 15 -15 25 -15
10 0 19 -7 19 -15 0 -11 7 -14 25 -9 14 3 25 2 25 -4 0 -6 13 -7 37 -1 29 6
40 5 46 -7 4 -7 15 -14 23 -14 8 0 38 -7 66 -17 38 -12 55 -13 68 -5 14 8 21
8 29 -2 14 -17 70 -26 78 -13 3 5 0 14 -6 20 -6 6 -11 16 -11 21 0 6 5 5 12
-2 7 -7 25 -12 40 -12 15 0 28 -4 28 -10 0 -5 -9 -10 -21 -10 -11 0 -17 -4
-14 -10 3 -5 17 -10 31 -10 27 0 60 -29 66 -57 2 -10 9 -19 16 -19 6 -1 21 -2
32 -3 11 0 20 -6 20 -12 0 -6 -9 -8 -21 -4 -17 6 -20 3 -17 -17 2 -19 8 -22
33 -20 17 2 42 12 57 23 34 24 37 24 31 -1 -4 -16 -2 -19 11 -14 10 4 15 13
12 20 -3 8 0 11 9 8 9 -4 16 3 21 20 3 15 15 31 25 37 11 5 19 16 19 23 0 7
10 12 23 12 19 -1 22 5 25 39 3 36 22 77 22 47 0 -6 6 -9 14 -6 8 3 12 12 9
21 -8 21 16 33 43 21 18 -8 27 -6 45 11 26 24 35 26 42 9 3 -9 10 -7 21 7 8
11 16 17 16 13 0 -5 9 1 21 13 14 14 18 24 11 31 -6 6 -5 19 4 36 7 15 15 50
17 77 2 28 8 59 14 70 10 17 12 16 28 -14 9 -18 32 -53 51 -77 65 -87 77 -189
39 -343 -57 -229 -90 -298 -183 -381 l-56 -50 662 0 662 0 0 224 0 224 -40 34
c-43 35 -161 112 -196 127 -11 5 -74 15 -140 22 -85 9 -139 20 -189 40 -38 15
-99 35 -135 44 -36 9 -83 27 -105 39 -63 36 -154 67 -222 76 -38 5 -73 16 -89
29 -14 11 -41 23 -59 27 -33 6 -33 7 -40 73 -7 71 0 99 58 237 41 95 93 316
104 439 3 38 13 73 27 95 14 20 26 58 29 90 3 30 13 98 22 150 31 181 33 206
27 348 -4 111 -2 155 11 200 26 96 35 164 31 237 -7 131 -15 172 -45 235 -16
35 -27 65 -24 68 3 3 5 -1 5 -9 0 -11 2 -11 10 1 20 31 3 125 -27 156 -12 12
-17 36 -18 91 -1 41 -6 77 -11 81 -14 9 -32 62 -29 83 4 25 -100 122 -180 169
-84 48 -237 123 -284 139 -46 15 -175 15 -165 0 4 -8 1 -8 -12 -1 -22 11 -196
33 -251 30 -21 0 -85 -4 -143 -8z m-250 -150 c11 -8 7 -9 -15 -4 -37 8 -45 14
-19 14 10 0 26 -5 34 -10z m-63 -106 c-3 -3 -12 -4 -19 -1 -8 3 -5 6 6 6 11 1
17 -2 13 -5z m-360 -48 c0 -8 -10 -19 -22 -24 -17 -8 -21 -6 -22 9 -1 11 2 17
7 14 5 -3 11 -1 15 5 9 15 22 12 22 -4z m243 3 c8 0 -3 -7 -24 -15 -22 -8 -42
-12 -44 -9 -3 3 0 5 7 5 8 0 11 6 7 16 -5 13 -2 15 16 10 13 -3 30 -6 38 -7z
m-145 -9 c-3 -5 -14 -10 -23 -9 -14 0 -13 2 3 9 27 11 27 11 20 0z m280 -50
c-22 -4 -31 -8 -21 -9 11 0 17 -3 15 -6 -8 -7 -79 7 -79 16 0 5 28 8 63 8 57
-2 59 -2 22 -9z m-38 -556 c-3 -3 -12 -4 -19 -1 -8 3 -5 6 6 6 11 1 17 -2 13
-5z m-524 -69 c-3 -8 -14 -15 -26 -15 -20 0 -20 0 -1 19 21 21 36 18 27 -4z
m27 -269 c0 -3 -4 -8 -10 -11 -5 -3 -10 -1 -10 4 0 6 5 11 10 11 6 0 10 -2 10
-4z m1370 -100 c-1 -5 4 -13 12 -17 8 -6 0 -9 -24 -9 -20 0 -48 -4 -62 -10
-30 -11 -34 0 -8 23 25 22 85 32 82 13z m82 -12 c-4 -11 -43 -6 -57 7 -6 6 4
8 25 6 19 -3 34 -8 32 -13z m-23 -130 c9 -8 25 -20 36 -28 20 -15 20 -15 -4
-16 -13 0 -21 -3 -18 -7 10 -9 -53 -53 -76 -53 -19 0 -19 1 -4 18 19 21 22 64
7 91 -8 16 -6 17 17 13 14 -3 33 -11 42 -18z m-204 -54 c4 -16 10 -30 15 -30
4 0 11 -7 14 -16 5 -13 1 -14 -27 -8 -17 4 -42 8 -54 8 -25 1 -44 16 -20 16 9
0 24 14 34 30 9 17 20 30 24 30 4 0 10 -13 14 -30z m62 -76 c-3 -3 -12 -4 -19
-1 -8 3 -5 6 6 6 11 1 17 -2 13 -5z m366 -14 c-3 -11 -15 -27 -26 -35 -17 -12
-19 -17 -9 -27 7 -7 12 -20 12 -29 0 -10 5 -19 10 -21 6 -2 12 -27 14 -56 3
-44 1 -54 -15 -63 -10 -5 -19 -18 -19 -29 0 -13 -5 -18 -15 -14 -11 4 -15 0
-15 -16 0 -19 2 -20 15 -10 20 16 19 0 -1 -29 -12 -17 -13 -26 -5 -34 15 -15
14 -27 -4 -27 -8 0 -15 -4 -15 -10 0 -5 -7 -10 -15 -10 -20 0 -19 -19 2 -42
15 -17 15 -18 -2 -18 -13 0 -16 -6 -13 -28 4 -25 1 -28 -24 -26 -29 2 -40 -19
-15 -29 8 -4 4 -12 -13 -26 -14 -11 -26 -16 -28 -11 -5 14 -49 12 -58 -1 -3
-6 -1 -15 5 -19 7 -4 -4 -6 -24 -5 -20 1 -39 5 -42 9 -11 11 -43 7 -43 -6 0
-6 -7 -4 -18 5 -22 20 -39 22 -45 5 -3 -10 -9 -9 -22 3 -20 20 -29 105 -11
117 27 17 22 117 -9 181 -14 28 -25 55 -25 61 0 5 -4 10 -9 10 -4 0 -6 11 -4
23 3 14 -2 31 -11 40 -9 8 -16 22 -16 29 0 8 -5 19 -12 26 -17 17 9 16 42 -1
46 -24 59 -27 54 -12 -3 8 -1 22 5 32 9 16 10 16 11 -4 0 -24 16 -31 22 -11 2
6 13 13 24 14 93 12 167 29 178 39 7 7 26 16 44 19 18 4 34 15 37 27 5 14 16
19 40 19 18 0 36 -6 38 -12 3 -8 6 -6 6 5 1 9 7 17 15 17 9 0 12 -7 9 -20z
m184 -22 c-3 -8 -6 -5 -6 6 -1 11 2 17 5 13 3 -3 4 -12 1 -19z m6 -75 c-5 -75
-14 -123 -24 -123 -12 0 -11 12 0 44 7 17 7 26 -2 29 -9 3 -9 9 1 26 6 11 12
32 12 46 0 14 4 25 8 25 4 0 7 -21 5 -47z m-13 -173 c0 -22 -2 -40 -4 -40 -2
0 -6 18 -8 40 -2 22 0 40 4 40 5 0 8 -18 8 -40z m77 20 c1 -11 -2 -18 -8 -15
-11 7 -12 35 -1 35 4 0 8 -9 9 -20z m-10 -82 c-3 -8 -6 -5 -6 6 -1 11 2 17 5
13 3 -3 4 -12 1 -19z m-975 -238 c0 -8 0 -25 -1 -37 -1 -17 2 -21 14 -17 10 4
15 0 15 -10 0 -9 -4 -16 -10 -16 -5 0 -10 -7 -10 -15 0 -8 -4 -15 -10 -15 -5
0 -10 5 -10 11 0 17 -29 41 -41 33 -8 -4 -9 -3 -5 4 4 7 16 12 27 12 24 0 24
11 0 38 -21 26 -36 29 -27 6 4 -9 2 -13 -5 -8 -6 4 -15 0 -20 -7 -4 -7 -11
-10 -16 -6 -4 5 -1 12 7 17 8 5 11 12 7 16 -4 4 5 13 20 19 31 13 62 1 65 -25z
m-113 -106 c6 4 11 0 11 -8 0 -10 9 -17 23 -17 12 -1 32 -3 45 -4 12 -1 40 1
62 5 57 10 59 -5 4 -23 -42 -13 -52 -13 -97 0 -52 15 -101 12 -147 -11 -14 -7
-38 -16 -55 -20 l-30 -8 32 30 c29 28 82 49 111 43 6 -1 12 6 12 16 0 14 2 15
9 4 5 -7 14 -10 20 -7z m65 -196 c9 -10 8 -17 -6 -30 -10 -10 -18 -14 -18 -9
0 5 -10 11 -22 14 -18 5 -19 8 -8 21 15 19 37 20 54 4z m146 -8 c0 -34 -33
-42 -65 -14 -15 13 -24 24 -19 24 6 0 15 -5 21 -11 9 -9 16 -8 28 5 22 22 35
20 35 -4z m140 -340 c0 -13 -1 -13 -10 0 -5 8 -10 22 -10 30 0 13 1 13 10 0 5
-8 10 -22 10 -30z m43 15 c-3 -9 -8 -14 -10 -11 -3 3 -2 9 2 15 9 16 15 13 8
-4z m-840 -15 c-3 -11 -9 -17 -15 -14 -5 3 -4 12 3 20 16 19 18 18 12 -6z
m738 -30 c-5 -3 -11 -12 -14 -20 -3 -8 -6 3 -6 24 -1 37 0 38 13 20 8 -10 11
-21 7 -24z m-191 -41 c0 -14 -17 -10 -23 5 -4 10 -1 13 9 9 7 -3 14 -9 14 -14z
m890 -64 c13 -14 21 -25 18 -25 -2 0 -15 11 -28 25 -13 14 -21 25 -18 25 2 0
15 -11 28 -25z m50 -79 c0 -6 -7 -1 -15 10 -8 10 -15 23 -15 28 0 6 7 1 15
-10 8 -10 15 -23 15 -28z m-957 -193 c-7 -2 -19 -2 -25 0 -7 3 -2 5 12 5 14 0
19 -2 13 -5z m527 -34 c0 -5 -4 -9 -10 -9 -5 0 -10 7 -10 16 0 8 5 12 10 9 6
-3 10 -10 10 -16z"/>
<path d="M2343 2003 c9 -2 23 -2 30 0 6 3 -1 5 -18 5 -16 0 -22 -2 -12 -5z"/>
<path d="M2401 1994 c0 -11 3 -14 6 -6 3 7 2 16 -1 19 -3 4 -6 -2 -5 -13z"/>
<path d="M2635 1770 c-3 -5 1 -10 10 -10 9 0 13 5 10 10 -3 6 -8 10 -10 10 -2
0 -7 -4 -10 -10z"/>
<path d="M2440 1615 c0 -8 5 -15 10 -15 6 0 10 7 10 15 0 8 -4 15 -10 15 -5 0
-10 -7 -10 -15z"/>
<path d="M1005 3190 c4 -6 11 -8 16 -5 14 9 11 15 -7 15 -8 0 -12 -5 -9 -10z"/>
<path d="M970 3105 c-11 -13 -8 -15 15 -15 23 0 26 2 15 15 -7 8 -14 15 -15
15 -1 0 -8 -7 -15 -15z"/>
<path d="M938 3068 c-16 -5 -28 -14 -28 -19 0 -6 12 -8 28 -6 38 7 62 18 62
28 0 11 -27 10 -62 -3z"/>
<path d="M908 3023 c7 -3 16 -2 19 1 4 3 -2 6 -13 5 -11 0 -14 -3 -6 -6z"/>
<path d="M923 2963 c-15 -5 -17 -23 -4 -23 5 0 11 7 15 15 3 8 4 15 3 14 -1 0
-8 -3 -14 -6z"/>
<path d="M890 2915 c-17 -21 -2 -61 23 -62 22 -2 22 -2 2 14 -20 15 -20 15 2
9 31 -10 36 8 8 32 -19 17 -26 18 -35 7z"/>
<path d="M1900 2864 c0 -8 5 -12 10 -9 6 3 10 10 10 16 0 5 -4 9 -10 9 -5 0
-10 -7 -10 -16z"/>
<path d="M1815 2814 c-23 -10 -25 -13 -10 -13 21 -1 53 15 45 22 -3 2 -18 -2
-35 -9z"/>
<path d="M884 2792 c4 -7 2 -20 -5 -28 -11 -13 -10 -18 4 -25 9 -6 17 -17 17
-25 0 -9 5 -12 11 -8 8 4 9 -1 4 -17 -5 -18 -4 -21 4 -9 6 8 8 23 5 34 -4 10
0 22 7 27 10 6 11 9 2 9 -7 0 -13 10 -13 22 0 12 -3 18 -7 15 -3 -4 -13 -1
-21 6 -13 10 -14 9 -8 -1z"/>
<path d="M941 2630 c-1 -25 5 -55 13 -66 8 -11 16 -28 19 -39 2 -11 2 1 0 27
-4 37 -1 48 14 57 17 10 17 10 1 11 -21 0 -22 4 -8 31 6 11 7 19 2 19 -6 0
-13 -10 -17 -22 l-7 -23 -8 25 c-7 21 -8 17 -9 -20z"/>
<path d="M1370 2471 c0 -6 -5 -11 -11 -11 -13 0 -39 -25 -39 -39 0 -6 -10 -16
-22 -22 l-23 -12 23 -10 c12 -6 22 -15 22 -21 0 -6 5 -4 10 4 9 13 12 12 25
-4 9 -11 15 -14 15 -7 0 9 15 11 58 8 127 -11 123 -47 -5 -47 -34 0 -53 -4
-53 -12 0 -6 -3 -9 -6 -5 -15 15 -55 -51 -61 -100 -5 -43 7 -42 32 4 11 20 26
38 32 41 19 6 -33 -81 -54 -90 -11 -5 -3 -6 19 -3 35 5 40 3 65 -34 16 -22 34
-40 41 -41 6 0 12 -7 12 -15 0 -8 6 -15 14 -15 7 0 16 -8 18 -17 4 -15 17 -18
84 -17 138 2 144 3 144 20 0 13 3 14 14 5 10 -9 16 -9 21 -1 5 8 11 8 21 -1
12 -10 18 -8 29 7 8 10 15 24 15 30 0 6 9 22 20 36 10 14 21 37 24 53 3 15 7
30 10 33 3 2 1 13 -4 23 -6 10 -12 45 -14 77 -4 65 -19 102 -40 102 -8 0 -21
11 -30 25 -9 14 -23 25 -32 25 -8 0 -27 6 -43 14 -17 9 -32 11 -42 5 -12 -7
-12 -9 0 -9 8 0 11 -3 8 -6 -4 -4 -18 1 -33 11 -31 20 -264 34 -264 16z m90
-276 c0 -13 11 -36 25 -50 l26 -25 -24 0 c-36 0 -97 28 -97 44 0 15 46 56 61
56 5 0 9 -11 9 -25z m80 11 c0 -3 -4 -8 -10 -11 -5 -3 -10 -1 -10 4 0 6 5 11
10 11 6 0 10 -2 10 -4z m110 -11 c0 -1 -7 -8 -15 -15 -13 -10 -15 -9 -15 8 0
15 5 20 15 16 8 -4 15 -7 15 -9z m0 -35 c0 -5 -5 -10 -11 -10 -5 0 -7 5 -4 10
3 6 8 10 11 10 2 0 4 -4 4 -10z"/>
<path d="M1270 2145 c0 -8 4 -15 10 -15 5 0 7 7 4 15 -4 8 -8 15 -10 15 -2 0
-4 -7 -4 -15z"/>
<path d="M1300 2120 c-9 -6 -10 -10 -3 -10 6 0 15 5 18 10 8 12 4 12 -15 0z"/>
<path d="M1590 1940 c0 -5 5 -10 10 -10 6 0 10 5 10 10 0 6 -4 10 -10 10 -5 0
-10 -4 -10 -10z"/>
<path d="M1732 1890 c-7 -11 -12 -27 -12 -35 0 -9 -4 -13 -10 -10 -6 3 -7 -1
-4 -9 3 -9 2 -16 -4 -16 -13 0 -24 -44 -16 -65 5 -13 8 -14 15 -3 6 9 9 5 9
-14 0 -15 4 -29 9 -33 6 -3 8 8 4 28 -3 18 3 63 12 101 18 71 17 88 -3 56z"/>
<path d="M1800 1709 c0 -5 5 -7 10 -4 6 3 10 8 10 11 0 2 -4 4 -10 4 -5 0 -10
-5 -10 -11z"/>
<path d="M1221 1284 c0 -11 3 -14 6 -6 3 7 2 16 -1 19 -3 4 -6 -2 -5 -13z"/>
<path d="M1610 1096 c0 -18 4 -24 15 -20 8 4 15 1 15 -5 0 -6 5 -11 10 -11 6
0 10 11 10 25 0 14 -4 25 -9 25 -5 0 -16 3 -25 6 -12 5 -16 0 -16 -20z"/>
<path d="M2221 1024 c0 -11 3 -14 6 -6 3 7 2 16 -1 19 -3 4 -6 -2 -5 -13z"/>
<path d="M2100 933 c0 -4 5 -15 10 -23 8 -13 10 -13 10 2 0 9 -4 20 -10 23 -5
3 -10 3 -10 -2z"/>
<path d="M1777 924 c-12 -12 -8 -26 5 -18 8 5 9 1 4 -12 -5 -14 -4 -16 4 -7 8
7 9 17 3 27 -5 9 -12 13 -16 10z"/>
<path d="M1250 717 c-35 -51 -35 -51 -33 -154 1 -89 -1 -102 -13 -92 -8 6 -14
18 -14 25 0 8 -4 14 -8 14 -11 0 -42 66 -42 91 0 11 21 42 46 69 49 52 43 68
-8 25 -17 -14 -69 -45 -116 -68 -92 -45 -108 -54 -212 -124 -144 -96 -196
-132 -225 -155 -16 -14 -51 -39 -77 -56 -25 -17 -59 -44 -75 -59 -80 -78 -94
-85 -158 -80 -63 4 -141 -15 -188 -46 -14 -9 -39 -37 -56 -62 l-30 -45 877 0
877 0 -45 27 c-47 28 -201 133 -210 142 -3 3 -27 24 -55 46 -27 22 -68 55 -90
75 -165 147 -168 152 -163 289 3 87 6 102 31 140 16 24 27 44 25 46 -2 2 -19
-20 -38 -48z"/>
<path d="M2320 340 c0 -5 -7 -10 -17 -10 -9 0 -14 -2 -11 -5 8 -9 58 6 58 16
0 5 -7 9 -15 9 -8 0 -15 -4 -15 -10z"/>
</g>
</svg>
